<svg width="200" height="50" viewBox="0 0 200 50" fill="none" xmlns="http://www.w3.org/2000/svg">
<g clip-path="url(#clip0_1_44)">
<rect width="200" height="50" fill="black"/>
<path d="M150 50H200V0L192.469 43.7286L150 50Z" fill="white"/>
<path d="M50 0H0V50L7.53125 6.27143L50 0Z" fill="white"/>
<path d="M163.005 25.18L163.025 26.72C162.972 27.6933 162.852 28.5133 162.665 29.18C162.479 29.8467 162.112 30.4533 161.565 31C160.659 31.9067 159.339 32.36 157.605 32.36C155.565 32.36 154.166 32.0933 153.406 31.56C152.646 31.0133 152.266 30.0333 152.266 28.62V18.12H157.805C159.405 18.12 160.659 18.5733 161.565 19.48C162.299 20.2133 162.732 21.1067 162.866 22.16C162.959 22.9067 163.005 23.9133 163.005 25.18ZM159.626 29C159.879 28.6933 160.039 28.2733 160.105 27.74C160.186 27.1933 160.226 26.3467 160.226 25.2C160.226 24.0533 160.186 23.2267 160.105 22.72C160.039 22.2 159.879 21.7867 159.626 21.48C159.146 20.8933 158.452 20.6 157.546 20.6H155.046V28.48C155.046 29.0133 155.226 29.38 155.586 29.58C155.946 29.78 156.586 29.88 157.506 29.88C158.439 29.88 159.146 29.5867 159.626 29Z" fill="white"/>
<path d="M150.312 32.36H147.412L146.612 29.9H141.832L141.052 32.36H138.152L142.712 19.32C142.912 18.8667 143.132 18.5533 143.372 18.38C143.625 18.2067 143.932 18.12 144.292 18.12C144.652 18.12 144.938 18.2 145.152 18.36C145.378 18.52 145.578 18.84 145.752 19.32L150.312 32.36ZM145.972 27.56L144.292 21.92L142.532 27.56H145.972Z" fill="white"/>
<path d="M137.08 24.58V25.66C137.08 28.0467 136.627 29.78 135.72 30.86C134.827 31.94 133.387 32.48 131.4 32.48C129.414 32.48 127.974 31.94 127.08 30.86C126.201 29.78 125.76 28.0267 125.76 25.6V24.56C125.76 22.3467 126.207 20.7 127.101 19.62C128.007 18.54 129.434 18 131.381 18C133.34 18 134.781 18.5467 135.701 19.64C136.62 20.7333 137.08 22.38 137.08 24.58ZM134.3 25.6V24.86C134.3 23.58 134.141 22.56 133.821 21.8C133.447 20.92 132.647 20.48 131.421 20.48C130.181 20.48 129.374 20.92 129 21.8C128.694 22.52 128.54 23.54 128.54 24.86V25.6C128.54 27.32 128.78 28.48 129.26 29.08C129.447 29.3333 129.72 29.5533 130.08 29.74C130.454 29.9133 130.894 30 131.4 30C131.92 30 132.36 29.9133 132.72 29.74C133.08 29.5667 133.361 29.3533 133.561 29.1C133.76 28.8467 133.914 28.5133 134.021 28.1C134.207 27.4467 134.3 26.6133 134.3 25.6Z" fill="white"/>
<path d="M124.424 32.36H120.184C118.584 32.36 117.424 32.0533 116.704 31.44C115.998 30.8133 115.644 29.8 115.644 28.4V18.12H118.424V28.4C118.424 28.96 118.551 29.3467 118.804 29.56C119.058 29.7733 119.518 29.88 120.184 29.88H124.424V32.36Z" fill="white"/>
<path d="M112.76 18.12V30.92C112.76 31.36 112.627 31.74 112.36 32.06C112.093 32.3667 111.78 32.52 111.42 32.52C110.5 32.52 109.747 31.9867 109.16 30.92L104.24 23.22V32.36H101.46V18.12H104.14L109.98 27.44V18.12H112.76Z" fill="white"/>
<path d="M99.8857 18.12L96.0657 32.36H93.7457L91.1257 23.72L88.5057 32.36H86.1857L82.3857 18.12H85.2857L87.4857 27.1L89.6657 19.68C89.9057 18.5733 90.4123 18.02 91.1857 18.02C91.5723 18.02 91.8657 18.1667 92.0657 18.46C92.2657 18.74 92.4457 19.1467 92.6057 19.68L94.7657 27.1L96.9857 18.12H99.8857Z" fill="white"/>
<path d="M81.4946 24.58V25.66C81.4946 28.0467 81.0412 29.78 80.1346 30.86C79.2412 31.94 77.8012 32.48 75.8146 32.48C73.8279 32.48 72.3879 31.94 71.4946 30.86C70.6146 29.78 70.1746 28.0267 70.1746 25.6V24.56C70.1746 22.3467 70.6212 20.7 71.5146 19.62C72.4212 18.54 73.8479 18 75.7946 18C77.7546 18 79.1946 18.5467 80.1146 19.64C81.0346 20.7333 81.4946 22.38 81.4946 24.58ZM78.7146 25.6V24.86C78.7146 23.58 78.5546 22.56 78.2346 21.8C77.8612 20.92 77.0612 20.48 75.8346 20.48C74.5946 20.48 73.7879 20.92 73.4146 21.8C73.1079 22.52 72.9546 23.54 72.9546 24.86V25.6C72.9546 27.32 73.1946 28.48 73.6746 29.08C73.8612 29.3333 74.1346 29.5533 74.4946 29.74C74.8679 29.9133 75.3079 30 75.8146 30C76.3346 30 76.7746 29.9133 77.1346 29.74C77.4946 29.5667 77.7746 29.3533 77.9746 29.1C78.1746 28.8467 78.3279 28.5133 78.4346 28.1C78.6212 27.4467 78.7146 26.6133 78.7146 25.6Z" fill="white"/>
<path d="M68.611 25.18L68.631 26.72C68.5776 27.6933 68.4576 28.5133 68.271 29.18C68.0843 29.8467 67.7176 30.4533 67.171 31C66.2643 31.9067 64.9443 32.36 63.211 32.36C61.171 32.36 59.771 32.0933 59.011 31.56C58.251 31.0133 57.871 30.0333 57.871 28.62V18.12H63.411C65.011 18.12 66.2643 18.5733 67.171 19.48C67.9043 20.2133 68.3376 21.1067 68.471 22.16C68.5643 22.9067 68.611 23.9133 68.611 25.18ZM65.231 29C65.4843 28.6933 65.6443 28.2733 65.711 27.74C65.791 27.1933 65.831 26.3467 65.831 25.2C65.831 24.0533 65.791 23.2267 65.711 22.72C65.6443 22.2 65.4843 21.7867 65.231 21.48C64.751 20.8933 64.0576 20.6 63.151 20.6H60.651V28.48C60.651 29.0133 60.831 29.38 61.191 29.58C61.551 29.78 62.191 29.88 63.111 29.88C64.0443 29.88 64.751 29.5867 65.231 29Z" fill="white"/>
<path fill-rule="evenodd" clip-rule="evenodd" d="M44 19.6327C40.8369 19.6327 38.2727 22.1969 38.2727 25.36C38.2727 28.5231 40.8369 31.0873 44 31.0873C47.1631 31.0873 49.7273 28.5231 49.7273 25.36C49.7273 22.1969 47.1631 19.6327 44 19.6327ZM37 25.36C37 21.494 40.134 18.36 44 18.36C47.866 18.36 51 21.494 51 25.36C51 29.226 47.866 32.36 44 32.36C40.134 32.36 37 29.226 37 25.36Z" fill="white"/>
<path fill-rule="evenodd" clip-rule="evenodd" d="M41.0046 24.91C41.2531 24.6615 41.656 24.6615 41.9045 24.91L44 27.0055L46.0955 24.91C46.344 24.6615 46.7469 24.6615 46.9954 24.91C47.2439 25.1585 47.2439 25.5615 46.9954 25.81L44.45 28.3554C44.2015 28.6039 43.7985 28.6039 43.55 28.3554L41.0046 25.81C40.7561 25.5615 40.7561 25.1585 41.0046 24.91Z" fill="white"/>
<path fill-rule="evenodd" clip-rule="evenodd" d="M44 22.1782C44.3515 22.1782 44.6364 22.4631 44.6364 22.8145V27.9055C44.6364 28.2569 44.3515 28.5418 44 28.5418C43.6485 28.5418 43.3636 28.2569 43.3636 27.9055V22.8145C43.3636 22.4631 43.6485 22.1782 44 22.1782Z" fill="white"/>
</g>
<defs>
<clipPath id="clip0_1_44">
<rect width="200" height="50" fill="white"/>
</clipPath>
</defs>
</svg>
