<svg width="200" height="200" viewBox="0 0 200 200" fill="none" xmlns="http://www.w3.org/2000/svg">
<g clip-path="url(#clip0_18_43)">
<mask id="mask0_18_43" style="mask-type:luminance" maskUnits="userSpaceOnUse" x="0" y="0" width="200" height="200">
<path d="M200 0H0V200H200V0Z" fill="white"/>
</mask>
<g mask="url(#mask0_18_43)">
<path d="M200 0H0V200H200V0Z" fill="black"/>
<path fill-rule="evenodd" clip-rule="evenodd" d="M0 0H188L186.132 13.0743L30.125 25.1593L9.36804 175.591L0 176V0Z" fill="white"/>
<path d="M0 200H200V0H194L169.875 174.841L0 188V200Z" fill="white"/>
<path d="M124.72 49.494H113.092V94.5148H103.342V49.494H88.24L97.0592 40H131.29L124.72 49.494Z" fill="white"/>
<path d="M103.533 160H92.2392L82.4892 139.786H75.4744V160H65.7244V117.2C65.7244 113.116 66.5892 110.156 68.3196 108.318C70.05 106.429 72.9492 105.485 77.0176 105.485H85.2948C90.252 105.485 94.18 107.144 97.0792 110.462C100.026 113.729 101.498 117.889 101.498 122.942C101.498 126.617 100.61 129.808 98.8332 132.513C97.1028 135.167 94.9516 137.005 92.3796 138.026L103.533 160ZM82.4892 130.905C84.5468 130.905 88.4048 130.139 89.714 128.608C91.0704 127.026 91.7484 125.086 91.7484 122.789C91.7484 120.441 91.0936 118.552 89.7844 117.123C88.5216 115.694 86.8148 114.979 84.6636 114.979H79.8236C76.924 114.979 75.4744 116.587 75.4744 119.803V130.905V139.786H82.4892V130.905Z" fill="white"/>
<path d="M160 160H145.129C139.518 160 135.449 158.826 132.924 156.478C130.445 154.079 129.206 150.2 129.206 144.84V114.979L138.956 105.485V144.84C138.956 146.984 139.4 148.464 140.289 149.281C141.178 150.098 142.791 150.506 145.129 150.506H160V160Z" fill="white"/>
<path fill-rule="evenodd" clip-rule="evenodd" d="M68.3388 73.842L76.2008 83.03C75.406 85.7056 74.2116 87.9768 72.6176 89.8444C69.438 93.5708 64.9484 95.4336 59.1496 95.4336C46.3832 95.4336 40 87.2412 40 70.856V66.262C40 53.348 43.2736 45.2576 49.8204 41.9908C52.3924 40.6636 55.5024 40 59.1496 40C64.4808 40 68.8064 41.608 72.1268 44.8236C75.4936 47.9884 77.1772 52.5824 77.1772 58.6056H68.0584C67.544 55.594 66.632 53.3224 65.3224 51.7912C64.0132 50.26 61.9556 49.494 59.1496 49.494C55.8764 49.494 53.4444 50.6172 51.8548 52.8632C50.7324 54.4456 50.0776 57.1508 49.8904 60.9792C49.7972 62.204 49.7504 63.8632 49.7504 65.956V70.7028C49.7504 76.5732 50.4984 80.58 51.9948 82.724C53.538 84.8676 55.9232 85.9396 59.1496 85.9396C62.4232 85.9396 64.668 84.9696 65.8836 83.03C67.1464 81.0392 67.9648 77.9768 68.3388 73.842Z" fill="white"/>
</g>
</g>
<defs>
<clipPath id="clip0_18_43">
<rect width="200" height="200" fill="white"/>
</clipPath>
</defs>
</svg>
