<svg width="150" height="150" viewBox="0 0 150 150" fill="none" xmlns="http://www.w3.org/2000/svg">
<g clip-path="url(#clip0_7_2)">
<mask id="mask0_7_2" style="mask-type:luminance" maskUnits="userSpaceOnUse" x="0" y="0" width="150" height="150">
<path d="M150 0H0V150H150V0Z" fill="white"/>
</mask>
<g mask="url(#mask0_7_2)">
<path d="M150 0H0V150H150V0Z" fill="black"/>
<path d="M150 0H0V150L22.5938 18.8143L150 0Z" fill="white"/>
<path d="M0 150H150V0L127.406 131.186L0 150Z" fill="white"/>
<path d="M53.8278 51.5868H59.9034C59.9034 55.8303 58.8357 59.091 56.7006 61.3686C54.5655 63.6465 51.5514 64.7853 47.6577 64.7853C39.0861 64.7853 34.8 59.7774 34.8 49.7616V46.9533C34.8 39.0594 36.9978 34.1139 41.3937 32.1168C43.1208 31.3056 45.2088 30.9 47.6577 30.9C51.2373 30.9 54.1416 31.8828 56.3709 33.8487C58.6317 35.7831 59.7621 38.5914 59.7621 42.273H53.6394C53.2938 40.4322 52.6818 39.0438 51.8025 38.1075C50.9232 37.1715 49.5417 36.7035 47.6577 36.7035C45.4599 36.7035 43.8273 37.3899 42.7596 38.763C42.006 39.7302 41.5665 41.3838 41.4408 43.7241C41.3781 44.4729 41.3467 45.4869 41.3467 46.7661V49.668C41.3467 53.2563 41.8491 55.7055 42.8538 57.0159C43.89 58.3266 45.4914 58.9818 47.6577 58.9818C49.8558 58.9818 51.363 58.389 52.1793 57.2031C53.0271 55.9863 53.5764 54.1143 53.8278 51.5868Z" fill="white"/>
<path d="M92.8722 36.7035H83.8764V64.2237H77.3298V36.7035H68.3811V30.9H92.8722V36.7035Z" fill="white"/>
<path d="M77.4583 119.1H69.8755L63.3286 106.744H58.6189V119.1H52.0723V92.9373C52.0723 90.441 52.6531 88.6314 53.815 87.5082C54.9766 86.3535 56.9233 85.7763 59.6551 85.7763H65.2126C68.5408 85.7763 71.1784 86.7903 73.1251 88.8186C75.1033 90.8154 76.0924 93.3585 76.0924 96.4473C76.0924 98.694 75.4957 100.644 74.3026 102.298C73.141 103.92 71.6965 105.044 69.9697 105.668L77.4583 119.1ZM64.7887 101.315C66.1702 101.315 67.3006 100.847 68.1799 99.9108C69.0904 98.9436 69.5458 97.758 69.5458 96.3537C69.5458 94.9185 69.106 93.7641 68.227 92.8905C67.3792 92.0166 66.2332 91.5798 64.7887 91.5798H61.5391C59.5924 91.5798 58.6189 92.5629 58.6189 94.5285V101.315H64.7887Z" fill="white"/>
<path d="M115.372 119.1H105.387C101.619 119.1 98.8877 118.382 97.1921 116.947C95.528 115.481 94.6958 113.109 94.6958 109.833V85.7763H101.243V109.833C101.243 111.143 101.541 112.049 102.137 112.548C102.734 113.047 103.817 113.297 105.387 113.297H115.372V119.1Z" fill="white"/>
</g>
</g>
<defs>
<clipPath id="clip0_7_2">
<rect width="150" height="150" fill="white"/>
</clipPath>
</defs>
</svg>
